<svg width="48" height="48" viewBox="0 0 48 48" fill="none" xmlns="http://www.w3.org/2000/svg">
<path d="M12.0465 23.9525L11.9995 23.9995M35.9995 23.9524L35.9526 23.9994M8.4 36H39.6C41.5882 36 43.2 34.3882 43.2 32.4V15.6C43.2 13.6118 41.5882 12 39.6 12H8.4C6.41178 12 4.8 13.6118 4.8 15.6V32.4C4.8 34.3882 6.41178 36 8.4 36ZM28.8 24C28.8 26.651 26.651 28.8 24 28.8C21.349 28.8 19.2 26.651 19.2 24C19.2 21.349 21.349 19.2 24 19.2C26.651 19.2 28.8 21.349 28.8 24Z" stroke="black" stroke-width="2" stroke-linecap="round" stroke-linejoin="round"/>
</svg>
